<?xml version="1.0" standalone="no"?>
<!DOCTYPE svg PUBLIC "-//W3C//DTD SVG 20010904//EN"
 "http://www.w3.org/TR/2001/REC-SVG-20010904/DTD/svg10.dtd">
<svg version="1.0" xmlns="http://www.w3.org/2000/svg"
 width="1000.000000pt" height="1000.000000pt" viewBox="0 0 1000.000000 1000.000000"
 preserveAspectRatio="xMidYMid meet">

<g transform="translate(0.000000,1000.000000) scale(0.100000,-0.100000)"
fill="#000000" stroke="none">
<path d="M6130 8725 c-94 -27 -172 -87 -237 -185 -17 -25 -203 -398 -415 -830
-1133 -2315 -1082 -2212 -1096 -2182 -12 27 -12 27 -6 -8 3 -19 4 -33 1 -30
-5 6 0 -12 -373 1250 -146 492 -267 901 -269 908 -3 8 0 10 6 6 14 -8 4 26
-21 76 -37 72 -78 117 -131 144 -45 22 -66 26 -142 26 -49 0 -115 -6 -146 -14
-31 -8 -69 -17 -86 -20 -16 -3 -40 -7 -52 -10 -13 -3 -32 -8 -43 -11 -11 -3
-29 -7 -40 -10 -11 -3 -29 -7 -40 -10 -11 -3 -29 -7 -40 -10 -11 -3 -29 -7
-40 -10 -11 -3 -29 -7 -40 -10 -11 -3 -29 -7 -40 -10 -11 -3 -29 -7 -40 -10
-11 -3 -29 -7 -40 -10 -11 -3 -29 -7 -40 -10 -11 -3 -29 -7 -40 -10 -32 -8
-64 -16 -80 -20 -8 -2 -15 -4 -15 -5 0 -1 -16 -3 -35 -6 -19 -2 -38 -8 -43
-13 -5 -5 -15 -7 -22 -5 -7 3 -16 1 -19 -5 -4 -6 -13 -8 -20 -5 -8 3 -17 1
-20 -5 -4 -6 -13 -8 -20 -5 -8 3 -17 1 -20 -5 -4 -6 -13 -8 -20 -5 -8 3 -17 1
-20 -5 -4 -6 -13 -8 -20 -5 -8 3 -17 0 -21 -5 -3 -6 -11 -9 -16 -6 -5 4 -15 3
-21 -1 -7 -5 -19 -9 -28 -9 -25 -3 -84 -17 -95 -23 -5 -4 -17 -7 -25 -9 -8 -1
-72 -16 -142 -34 -90 -22 -143 -41 -180 -65 -29 -18 -69 -40 -88 -49 -65 -28
-83 -40 -99 -64 -16 -24 -15 -24 14 -18 17 3 39 8 50 11 11 4 -6 -6 -37 -21
-70 -34 -83 -59 -82 -158 1 -87 -18 -19 369 -1310 178 -594 517 -1730 755
-2525 237 -795 447 -1493 466 -1552 52 -162 130 -265 233 -311 37 -16 58 -19
120 -14 127 10 120 8 961 380 497 220 571 255 608 290 122 114 128 122 147
190 17 65 17 162 -1 225 -6 21 -3 22 44 22 75 0 151 33 219 93 33 29 72 62 89
74 41 30 79 97 203 359 1883 3975 2301 4863 2312 4912 6 26 17 72 25 103 23
91 20 106 -36 165 -27 29 -50 61 -50 71 -1 33 -53 97 -85 103 -17 4 -45 14
-63 24 -46 24 -53 25 -863 131 -845 110 -845 110 -919 90z m-96 -182 c-34 -25
-51 -14 -19 14 20 18 30 22 33 13 3 -7 -3 -19 -14 -27z m646 7 c12 -7 12 -12
-4 -29 -21 -23 -56 -27 -74 -9 -9 9 -12 7 -12 -10 0 -12 -4 -22 -10 -22 -16 0
-12 29 8 55 18 26 64 33 92 15z m394 -76 c11 -44 -45 -88 -61 -49 -3 9 2 24
11 34 9 10 16 23 16 29 0 23 28 12 34 -14z m136 -65 c0 -28 -46 -47 -66 -28
-18 19 -9 48 20 59 25 9 46 -5 46 -31z m-640 22 c0 -6 -4 -13 -10 -16 -5 -3
-10 1 -10 9 0 9 5 16 10 16 6 0 10 -4 10 -9z m990 -1 c0 -5 -2 -10 -4 -10 -3
0 -8 5 -11 10 -3 6 -1 10 4 10 6 0 11 -4 11 -10z m-1562 -32 c-2 -15 -11 -24
-25 -26 -25 -4 -31 16 -11 36 20 20 40 14 36 -10z m630 -17 c-2 -19 -10 -27
-27 -29 -35 -5 -47 12 -28 42 22 33 59 25 55 -13z m292 15 c0 -2 -8 -10 -17
-17 -16 -13 -17 -12 -4 4 13 16 21 21 21 13z m620 -30 c0 -19 -7 -26 -30 -31
-16 -4 -34 -4 -39 0 -16 9 -1 35 19 35 11 0 22 5 25 10 11 18 25 10 25 -14z
m-998 -18 c-4 -17 -2 -20 12 -15 23 9 56 -9 56 -32 0 -9 -11 -28 -24 -40 -19
-18 -31 -21 -55 -16 -17 4 -31 9 -31 12 0 19 33 113 40 113 4 0 6 -10 2 -22z
m-585 -4 c6 -16 -12 -34 -34 -34 -7 0 -13 9 -13 19 0 18 12 28 33 30 4 1 10
-6 14 -15z m1692 1 c14 -8 14 -41 1 -66 -13 -23 -53 -25 -74 -3 -20 19 -20 29
-1 58 15 22 48 28 74 11z m-169 -67 c0 -27 -40 -50 -63 -36 -21 11 -11 38 13
38 11 0 22 5 25 10 11 18 25 11 25 -12z m-515 2 c3 -5 1 -10 -4 -10 -6 0 -11
5 -11 10 0 6 2 10 4 10 3 0 8 -4 11 -10z m133 -76 c2 -13 -6 -25 -22 -33 -27
-15 -46 -8 -46 18 0 41 62 56 68 15z m-596 4 c-22 -22 -14 -64 13 -76 14 -6
25 -17 25 -24 -1 -24 -38 -58 -64 -58 -23 0 -26 4 -26 34 0 19 5 38 10 41 6 3
10 17 10 31 0 31 17 64 32 64 9 0 9 -3 0 -12z m918 -22 c0 -22 -21 -35 -57
-36 -23 0 -13 29 15 43 38 21 42 20 42 -7z m-1416 -1 c6 -17 -19 -45 -40 -45
-8 0 -14 5 -14 11 0 8 -5 8 -15 -1 -8 -7 -22 -10 -30 -6 -13 4 -14 10 -5 26
12 22 40 27 40 8 0 -8 6 -6 17 5 21 21 39 22 47 2z m1366 -80 c0 -19 -43 -40
-65 -31 -20 7 -11 24 19 36 32 13 46 12 46 -5z m-1406 -24 c10 -16 -5 -41 -25
-41 -21 0 -25 20 -7 38 14 14 25 15 32 3z m1491 -7 c26 -26 3 -73 -35 -74 -38
0 -51 41 -23 72 20 22 37 23 58 2z m354 -35 c-12 -21 -14 -22 -17 -6 -6 28 6
53 19 40 8 -8 7 -18 -2 -34z m-815 -11 c12 -20 -8 -48 -36 -48 -27 0 -34 27
-12 51 19 22 32 21 48 -3z m-547 -10 c-3 -8 -6 -5 -6 6 -1 11 2 17 5 13 3 -3
4 -12 1 -19z m863 1 c0 -11 -4 -18 -9 -14 -5 3 -12 1 -16 -5 -7 -12 -45 -14
-45 -2 0 15 16 30 35 35 34 8 35 8 35 -14z m-1380 -3 c0 -8 -5 -18 -10 -21
-17 -11 -40 3 -34 20 8 19 44 20 44 1z m511 -40 c-9 -11 -6 -15 14 -20 21 -5
26 -12 23 -34 -2 -16 -12 -31 -28 -39 -47 -23 -57 -34 -52 -59 2 -14 0 -24 -8
-24 -7 0 -9 8 -5 20 6 18 3 20 -19 14 -19 -4 -28 -2 -32 10 -11 28 4 63 30 70
13 3 34 21 47 41 13 19 28 35 33 35 5 0 3 -6 -3 -14z m802 -51 c-26 -20 -43
-18 -43 5 0 13 7 20 19 20 11 0 23 6 28 13 5 9 9 7 11 -6 2 -10 -5 -25 -15
-32z m502 14 c10 -16 -14 -66 -35 -72 -36 -9 -55 38 -25 63 8 7 15 9 15 4 0
-4 5 -3 12 4 15 15 25 15 33 1z m-1830 -59 c5 -8 11 -7 21 1 19 15 39 -2 31
-25 -7 -18 -47 -22 -47 -5 0 5 -5 7 -10 4 -17 -11 -40 3 -34 20 7 17 30 20 39
5z m1299 1 c6 -9 -36 -41 -54 -41 -19 0 -10 31 13 40 29 12 35 12 41 1z m-314
-16 c16 -19 -3 -45 -31 -45 -22 0 -26 29 -7 48 16 16 23 15 38 -3z m395 -51
c0 -25 -4 -29 -33 -32 -40 -4 -50 16 -27 52 23 34 60 22 60 -20z m355 -24 c0
-9 -15 -24 -34 -33 -29 -13 -36 -14 -46 -2 -15 18 5 59 23 49 7 -4 9 -4 5 1
-4 4 -3 14 4 22 9 11 14 11 29 -3 11 -10 19 -25 19 -34z m-480 18 c0 -13 -30
-37 -47 -38 -7 0 -13 9 -13 20 0 13 7 20 20 20 11 0 20 5 20 11 0 5 5 7 10 4
6 -3 10 -11 10 -17z m-780 -28 c0 -5 9 -10 20 -10 36 0 24 -47 -17 -69 -49
-25 -62 2 -31 67 12 23 28 30 28 12z m-450 -8 c0 -4 -5 -13 -12 -20 -18 -18
-28 -15 -28 8 0 13 7 20 20 20 11 0 20 -4 20 -8z m1190 -33 c0 -5 -7 -9 -15
-9 -8 0 -15 -5 -15 -11 0 -18 -33 -5 -36 14 -1 9 1 15 4 13 4 -2 16 0 27 4 22
8 35 4 35 -11z m-310 -24 c10 -12 10 -18 0 -30 -16 -19 -39 -19 -46 0 -6 15
11 45 26 45 4 0 13 -7 20 -15z m-925 -26 c0 -7 -8 -15 -17 -17 -18 -3 -25 18
-11 32 10 10 28 1 28 -15z m1176 3 c0 10 2 10 6 1 5 -14 -19 -43 -36 -43 -15
0 -22 16 -15 34 5 12 10 13 25 5 14 -7 19 -6 20 3z m449 -41 c0 -35 -15 -49
-46 -43 -38 7 -41 30 -8 57 34 27 54 22 54 -14z m-1170 13 c0 -8 -5 -12 -10
-9 -6 4 -8 11 -5 16 9 14 15 11 15 -7z m798 -46 c2 -20 -2 -28 -19 -33 -32
-10 -55 16 -39 44 16 32 54 24 58 -11z m-127 -14 c-12 -8 -21 -21 -21 -28 0
-8 -7 -19 -15 -26 -8 -7 -15 -20 -15 -30 0 -10 -7 -20 -15 -24 -8 -3 -20 -16
-25 -28 -23 -52 -86 -139 -95 -130 -5 4 -5 1 0 -7 5 -9 2 -18 -7 -25 -8 -6
-16 -14 -17 -18 -6 -25 -14 -37 -22 -32 -5 3 -9 -4 -9 -14 0 -11 -7 -22 -15
-26 -8 -3 -15 -9 -14 -13 3 -20 -2 -34 -11 -28 -5 3 -10 -3 -10 -14 0 -13 -7
-21 -17 -21 -9 0 -14 -3 -11 -6 5 -5 -89 -147 -234 -355 -50 -71 -55 -84 -43
-113 5 -11 4 -30 -2 -45 -6 -14 -14 -35 -18 -46 -5 -11 5 -4 21 15 16 20 35
42 42 50 6 8 21 26 31 40 l19 25 -2 -32 c-1 -19 -12 -42 -29 -59 -16 -16 -33
-37 -39 -47 -9 -18 -9 -19 12 -4 11 8 69 66 128 128 59 63 111 114 117 114 5
0 11 -10 13 -23 3 -17 -2 -25 -17 -29 -12 -3 -17 -11 -14 -19 3 -9 -2 -14 -16
-14 -15 0 -21 -5 -19 -17 2 -10 -1 -18 -7 -18 -5 -1 -52 -43 -104 -93 -52 -51
-98 -92 -103 -92 -4 0 -8 -6 -8 -14 0 -29 26 -22 70 18 l45 41 -44 -47 c-24
-26 -49 -45 -54 -41 -5 3 -3 -5 4 -18 7 -13 14 -27 15 -31 1 -5 2 -10 3 -13 1
-7 135 109 236 205 194 186 211 200 206 168 -2 -13 4 -9 35 24 l29 33 -30 -25
-30 -25 24 27 c13 15 27 26 31 25 4 -1 17 8 28 21 11 13 24 22 28 20 5 -2 19
13 32 32 13 19 33 40 45 47 12 6 23 16 23 22 3 21 4 22 15 16 7 -5 4 -14 -8
-28 -17 -20 -17 -20 2 -13 13 5 7 -6 -19 -33 -22 -22 -43 -38 -47 -35 -8 5
-23 -14 -24 -31 -1 -5 -7 -9 -15 -7 -11 3 -11 0 0 -14 13 -14 11 -19 -15 -41
-17 -14 -85 -73 -153 -132 -119 -103 -154 -128 -137 -101 5 9 4 11 -4 6 -6 -4
-9 -11 -6 -16 9 -15 -157 -148 -178 -142 -5 1 -5 -2 -2 -8 11 -17 65 20 215
149 90 77 120 97 104 69 -4 -7 -4 -10 0 -6 4 3 6 8 4 11 -4 7 33 47 44 47 5 0
6 -6 2 -12 -5 -9 -2 -8 9 1 10 8 15 16 12 19 -7 7 25 42 38 42 6 0 2 -10 -9
-22 l-19 -23 23 19 c12 11 20 21 17 24 -7 7 15 32 27 32 6 0 4 -8 -3 -17 -11
-15 -10 -15 8 1 13 10 21 22 18 26 -2 3 37 41 88 84 59 50 74 60 41 27 -28
-27 -49 -53 -46 -56 3 -3 16 5 29 17 12 12 25 19 29 16 3 -3 -8 -15 -25 -27
-20 -14 -32 -18 -36 -10 -8 11 -55 -27 -55 -44 0 -6 11 0 25 13 14 13 27 21
30 18 3 -3 -10 -17 -30 -32 -19 -15 -33 -31 -30 -36 3 -5 0 -12 -6 -16 -8 -4
-9 -3 -5 4 11 18 -10 14 -25 -5 -8 -9 -9 -14 -2 -10 16 10 44 -3 36 -16 -3 -6
-1 -7 6 -3 6 4 9 11 6 16 -6 10 22 33 33 26 5 -3 9 2 9 10 0 9 -6 13 -16 9 -9
-4 -3 8 14 25 21 21 36 29 50 26 12 -3 36 4 54 15 l32 20 -14 -28 c-8 -15 -32
-65 -53 -110 -21 -46 -42 -83 -46 -83 -13 0 -23 5 -21 10 1 3 -8 7 -20 7 -19
2 -20 1 -5 -8 10 -5 15 -16 12 -24 -4 -8 -1 -15 4 -15 14 0 5 -46 -15 -76 -8
-13 -24 -24 -34 -24 -10 0 -23 -10 -30 -22 -10 -18 -9 -20 5 -15 23 9 20 0 -5
-14 -15 -8 -19 -8 -15 0 5 7 -2 11 -18 11 -23 0 -52 -30 -40 -42 3 -3 -2 -8
-11 -12 -9 -3 -14 -2 -11 2 2 4 -4 8 -15 8 -20 0 -26 -12 -9 -18 6 -2 -35 -29
-90 -61 -56 -32 -106 -55 -113 -51 -7 4 -8 3 -4 -2 5 -4 -16 -20 -45 -35 -29
-14 -84 -43 -123 -64 -38 -21 -82 -44 -97 -52 -31 -16 -45 -33 -28 -33 6 0 8
-5 4 -12 -5 -8 -1 -9 12 -5 19 7 19 7 0 -8 -14 -11 -19 -27 -19 -59 0 -25 -4
-43 -9 -40 -4 3 -8 0 -8 -6 0 -6 10 -15 23 -20 19 -8 10 -15 -15 -11 -13 2 -9
-17 5 -23 9 -3 7 -9 -6 -19 -10 -8 -14 -18 -9 -21 5 -3 7 -19 4 -36 -3 -22
-10 -30 -25 -30 -20 0 -20 -1 -2 -13 17 -13 17 -14 -6 -20 -32 -9 -18 -19 26
-19 26 0 41 6 51 21 20 27 34 27 35 -1 l0 -23 9 23 c12 28 45 31 37 2 -7 -26
15 -31 28 -6 14 28 45 34 38 8 -7 -30 23 -35 41 -6 20 29 36 31 36 5 0 -26 37
-34 43 -10 5 19 33 36 43 26 9 -9 -58 -128 -75 -135 -9 -3 -23 -15 -32 -26
-18 -22 -52 -16 -43 9 3 8 1 15 -5 15 -7 0 -14 -7 -17 -15 -5 -11 -19 -14 -62
-11 -46 3 -59 8 -68 26 -11 21 -11 21 -17 1 -7 -27 -27 -27 -35 1 l-5 22 -9
-23 c-6 -18 -11 -21 -22 -12 -10 9 -16 8 -26 -4 -11 -13 -10 -14 3 -10 8 4 18
1 22 -5 3 -6 3 -10 -2 -9 -22 4 -32 -2 -27 -16 4 -9 1 -28 -5 -43 -20 -51 -21
-83 -3 -90 14 -5 12 -7 -8 -12 -14 -3 -30 -16 -36 -28 -6 -13 -21 -33 -33 -46
-17 -18 -19 -26 -10 -31 7 -5 10 -4 6 2 -4 6 1 17 11 24 15 12 16 12 5 -2 -7
-9 -11 -18 -8 -21 3 -3 -5 -13 -17 -24 -22 -19 -23 -19 -8 1 14 19 14 19 -3 6
-13 -10 -14 -17 -7 -26 8 -10 8 -15 -1 -21 -8 -5 -9 -3 -4 6 6 9 4 11 -4 5 -9
-5 -10 -10 -2 -18 8 -8 6 -16 -4 -27 -14 -16 -12 -21 19 -56 20 -21 36 -34 36
-28 0 6 -3 14 -7 18 -4 3 -8 13 -9 21 -3 22 24 18 38 -5 7 -11 18 -20 25 -20
7 0 13 -9 13 -21 0 -11 5 -17 10 -14 6 3 14 -3 18 -14 4 -11 11 -20 15 -20 4
0 19 -9 33 -20 25 -19 25 -21 10 -48 -9 -15 -21 -41 -27 -58 l-10 -30 -52 57
c-29 31 -72 82 -97 114 -66 83 -86 102 -73 69 6 -17 -25 -58 -37 -50 -5 3 -7
-3 -5 -12 1 -10 -8 -30 -22 -44 -13 -14 -23 -32 -21 -39 2 -8 -19 -29 -46 -47
-49 -33 -90 -46 -48 -15 36 27 78 64 63 57 -7 -4 -16 -2 -20 4 -5 8 -13 7 -27
-4 -18 -13 -18 -14 6 -9 23 4 24 4 6 -8 -49 -34 -56 -43 -50 -66 6 -20 8 -21
23 -9 9 8 27 20 41 26 20 10 17 5 -12 -23 -44 -42 -45 -54 -16 -156 11 -41 21
-85 22 -97 0 -13 5 -23 9 -23 5 0 7 -12 5 -27 -5 -42 -34 -37 -30 5 2 20 -1
32 -9 32 -8 0 -9 10 -5 30 3 18 2 29 -3 25 -16 -9 -22 14 -10 36 10 19 9 21
-6 15 -15 -5 -16 -2 -11 21 4 19 4 23 -3 14 -5 -7 -14 -10 -20 -6 -9 5 -8 13
3 31 19 28 20 38 5 28 -9 -5 -10 1 -5 20 4 18 3 25 -4 21 -6 -3 -10 3 -10 14
0 23 -8 26 -30 10 -11 -7 -12 -12 -3 -15 15 -7 5 -34 -13 -34 -25 0 -30 74
-10 155 2 11 5 23 5 28 1 4 8 7 17 7 10 0 13 6 9 19 -3 10 -11 38 -18 62 -10
32 -18 43 -30 41 -18 -3 -22 8 -8 24 13 14 -5 55 -23 48 -9 -3 -17 4 -23 23
-8 23 -5 36 14 68 l24 40 -26 -30 -26 -30 18 40 c18 40 30 55 47 55 5 0 2 -7
-5 -17 -12 -14 -12 -16 1 -11 8 2 26 24 39 47 21 38 22 45 9 58 -13 13 -19 8
-47 -36 -43 -66 -55 -75 -72 -55 -10 12 -10 20 -2 34 7 10 9 27 6 39 -4 14 2
30 14 44 24 26 53 79 33 60 -7 -6 -18 -22 -24 -35 -6 -12 -18 -23 -26 -23 -9
0 -14 -8 -12 -20 2 -19 2 -19 -9 -2 -6 10 -8 21 -5 24 3 4 -3 13 -15 21 -17
12 -18 16 -7 30 12 15 11 16 -6 2 -16 -13 -20 -12 -33 5 -8 11 -21 19 -30 17
-11 -2 -14 1 -10 12 4 10 1 16 -8 17 -8 1 -19 3 -25 4 -5 1 -19 3 -31 4 -11 0
-17 6 -14 11 4 6 12 7 18 4 7 -4 9 -4 5 0 -3 4 0 23 8 41 20 48 17 92 -7 126
-16 23 -26 28 -42 23 -50 -15 -117 -109 -117 -163 0 -31 -48 -71 -85 -71 -8 0
-15 6 -16 13 0 8 -2 8 -6 -2 -5 -11 -7 -11 -14 0 -6 10 -9 8 -9 -7 0 -20 -17
-34 -41 -34 -20 0 0 138 28 193 8 16 16 38 18 48 2 11 19 32 37 47 18 15 56
48 83 74 28 26 63 52 78 57 15 6 27 15 27 21 0 7 -6 7 -21 0 -11 -6 -29 -13
-40 -15 -40 -8 -139 -106 -172 -171 -9 -17 -23 -34 -30 -37 -18 -7 -29 -47
-14 -47 6 0 1 -7 -11 -16 -12 -8 -20 -19 -17 -24 3 -5 1 -11 -4 -15 -6 -3 -8
-12 -5 -19 3 -8 0 -17 -5 -21 -6 -3 -9 -11 -6 -16 4 -5 1 -9 -4 -9 -6 0 -12 6
-13 13 0 6 -4 -8 -7 -33 -5 -39 -9 -45 -31 -48 -22 -3 -26 1 -28 28 -1 17 3
30 9 30 7 0 10 12 7 30 -3 17 -1 30 4 30 4 0 11 12 14 28 4 15 13 36 20 47 16
23 19 59 4 50 -13 -8 -13 1 1 26 5 11 14 17 19 14 6 -3 7 0 4 8 -3 8 0 18 7
23 8 5 10 3 4 -6 -5 -9 -4 -11 4 -6 6 4 9 12 5 17 -3 5 0 16 6 24 7 8 10 21 7
28 -3 8 3 13 14 14 19 2 18 0 -2 -30 -20 -29 -18 -28 14 6 30 33 34 41 23 52
-10 10 -16 11 -24 3 -7 -7 -14 -10 -16 -7 -3 2 7 14 21 27 14 12 23 16 20 8
-3 -8 2 -21 12 -30 16 -15 19 -14 41 9 13 14 20 25 15 25 -5 0 -4 5 3 12 7 7
8 17 2 29 -7 12 -6 20 2 25 6 4 8 3 4 -4 -3 -6 1 -17 10 -26 12 -12 20 -13 35
-5 11 5 16 15 13 21 -4 6 -3 8 3 5 14 -9 103 31 110 49 3 8 9 14 15 14 5 0 7
-4 4 -8 -3 -5 13 -9 35 -10 33 -2 40 1 35 13 -3 8 0 15 7 15 8 0 9 2 1 8 -6 4
-10 15 -8 25 2 17 -3 18 -58 13 -33 -4 -81 -15 -105 -26 -44 -19 -172 -105
-184 -123 -3 -5 -10 -8 -15 -8 -5 1 -9 -3 -9 -7 0 -5 -13 -21 -30 -37 -16 -15
-21 -22 -10 -14 11 7 3 -4 -18 -24 -24 -22 -36 -41 -31 -48 4 -8 3 -9 -4 -5
-11 6 -16 -6 -13 -26 0 -5 -4 -8 -10 -8 -5 0 -7 -4 -4 -10 3 -5 1 -10 -5 -10
-7 0 -10 -6 -7 -14 4 -10 0 -12 -14 -9 -14 4 -21 -2 -29 -23 -12 -30 7 -92 38
-127 13 -15 14 -18 2 -15 -8 2 -24 23 -35 47 l-20 44 -12 -26 c-8 -16 -9 -29
-3 -32 6 -4 10 4 10 17 0 18 2 20 10 8 12 -19 13 -53 1 -46 -4 3 -6 -7 -4 -22
l4 -27 -15 25 -16 25 -6 -22 c-3 -13 -9 -23 -13 -23 -4 0 -13 -20 -20 -44 -14
-50 -33 -70 -73 -80 -26 -6 -28 -4 -28 24 0 18 4 29 10 25 6 -3 10 -2 10 4 0
5 -5 11 -11 13 -8 3 -6 10 5 20 9 9 16 25 16 35 0 68 107 323 136 323 7 0 18
9 24 19 13 25 13 31 -3 31 -6 0 -44 16 -84 35 -71 34 -96 37 -107 9 -3 -7 -12
-11 -21 -8 -24 10 -18 -6 8 -17 20 -9 20 -9 -6 -5 -21 2 -27 0 -23 -10 4 -11
-1 -13 -19 -8 -19 5 -26 0 -39 -24 -15 -29 -15 -30 14 -36 42 -8 38 -23 -5
-18 -21 3 -35 0 -35 -7 0 -6 6 -11 13 -11 7 0 22 -7 33 -15 12 -9 13 -13 4
-11 -8 2 -28 7 -44 11 -26 5 -28 4 -17 -9 10 -12 11 -19 2 -30 -15 -18 5 -26
70 -26 27 0 49 -4 49 -10 0 -6 -27 -8 -65 -6 l-64 3 -16 -41 c-9 -23 -17 -43
-17 -46 0 -3 -4 -15 -9 -27 -8 -23 -8 -23 84 -19 63 3 85 1 68 -5 -13 -5 -52
-11 -87 -12 -35 -1 -69 -8 -76 -15 -9 -9 -3 -11 28 -8 21 2 53 7 69 10 30 7
30 7 -4 -9 -18 -8 -44 -15 -58 -15 -40 0 -51 -20 -44 -78 0 -7 6 -10 11 -7 16
10 11 -4 -9 -24 -10 -10 -31 -18 -45 -18 -36 0 -60 -23 -25 -24 21 0 19 -2
-11 -14 -42 -16 -84 -19 -75 -5 4 6 11 8 16 5 5 -4 9 -1 9 4 0 13 -10 14 -29
2 -8 -5 -11 -16 -8 -24 4 -10 -2 -17 -16 -21 -12 -3 -23 -4 -25 -2 -7 8 42 95
51 89 6 -3 7 -1 3 5 -4 6 27 80 67 164 241 495 379 768 386 763 12 -7 72 14
95 34 17 15 20 14 38 -10 l20 -27 33 20 c51 30 58 41 36 65 -10 11 -27 35 -36
54 -10 19 -21 36 -25 39 -4 3 -13 16 -19 29 -10 18 -10 25 0 35 9 8 11 7 6 -6
-4 -12 -1 -18 9 -18 8 0 12 -4 9 -10 -3 -5 -2 -10 3 -10 5 0 17 -18 27 -40 10
-23 26 -49 34 -58 17 -19 41 -27 41 -14 0 4 -6 14 -12 22 -7 8 -4 7 8 -3 19
-16 24 -16 65 -2 24 9 47 21 51 28 6 9 10 8 17 -3 9 -13 11 -13 15 0 12 32 -5
118 -33 166 -11 19 -18 34 -15 34 9 0 36 -30 27 -30 -4 0 -2 -4 5 -8 7 -5 15
-18 17 -30 3 -12 8 -32 11 -44 3 -13 6 -29 8 -37 4 -19 28 -30 58 -27 22 3 30
-3 43 -29 8 -18 15 -38 15 -44 0 -6 4 -11 9 -11 5 0 2 19 -6 41 -7 23 -11 44
-8 47 3 4 37 8 75 10 62 2 70 1 70 -15 1 -14 4 -13 16 7 14 23 14 23 9 3 -5
-19 -2 -23 14 -23 15 0 21 -7 21 -22 1 -20 2 -20 15 7 9 20 14 24 14 12 1 -10
8 -20 16 -23 8 -4 15 -17 15 -30 0 -28 16 -32 23 -6 4 15 6 15 11 -3 6 -18 22
-31 109 -89 l28 -18 21 51 c20 46 38 66 38 41 0 -5 -4 -10 -10 -10 -5 0 -9 -3
-8 -7 1 -5 -3 -18 -10 -29 -6 -12 -8 -24 -5 -28 3 -3 1 -6 -4 -6 -17 0 -9 -27
18 -62 13 -18 29 -41 35 -52 11 -18 13 -17 32 20 53 105 116 214 124 214 10 0
11 -17 0 -22 -5 -1 -22 -33 -39 -69 -17 -36 -38 -75 -48 -87 -22 -25 -46 -93
-40 -110 8 -21 27 -2 22 20 -3 11 -4 18 -1 15 15 -14 164 171 164 204 0 26
-26 59 -47 59 -10 0 -12 6 -8 19 3 11 1 22 -5 26 -10 6 -7 52 5 63 3 4 10 0
15 -8 11 -18 16 -13 26 25 6 26 5 28 -8 18 -16 -14 -38 0 -38 24 0 7 -3 12 -7
12 -20 -3 -26 2 -13 11 11 7 11 10 2 10 -8 0 -10 5 -6 12 5 7 2 9 -8 5 -12 -4
-14 -1 -11 14 6 21 -4 24 -27 9 -10 -6 -20 -4 -32 7 -17 15 -18 15 -18 0 0
-10 -4 -17 -10 -17 -5 0 -7 7 -3 16 4 10 -4 24 -21 39 -15 13 -26 25 -25 27 1
2 -1 13 -5 26 -6 17 -12 21 -28 16 -15 -4 -18 -3 -13 6 6 9 3 9 -13 1 -29 -15
-31 -14 -42 15 -7 17 -15 24 -25 20 -8 -3 -15 -2 -15 3 0 5 -9 11 -20 14 -13
3 -20 14 -20 28 0 22 -1 22 -13 4 -13 -17 -14 -17 -20 6 -6 20 -9 21 -17 9 -5
-8 -10 -10 -10 -5 0 6 -4 5 -8 -2 -5 -7 -13 -9 -22 -3 -12 7 -18 51 -20 150 0
13 -40 28 -40 15 0 -15 14 -34 21 -29 5 3 9 -23 9 -58 0 -35 3 -74 5 -88 5
-22 4 -21 -6 4 -8 19 -14 24 -19 16 -6 -9 -10 -7 -14 6 -4 11 -18 28 -33 38
l-26 19 6 -23 c6 -22 5 -22 -23 5 -23 22 -28 24 -24 9 4 -17 -1 -19 -38 -20
-24 0 -35 1 -25 4 23 5 22 17 -5 34 -31 20 -8 30 28 12 18 -10 24 -10 17 -3
-7 7 -13 17 -13 21 0 15 33 8 46 -9 13 -17 13 -17 14 0 0 22 18 22 42 0 17
-15 18 -14 18 26 0 24 -6 49 -15 57 -8 9 -15 11 -15 6 0 -9 -22 -10 -77 -3 -7
0 -13 5 -13 10 0 4 11 6 25 3 13 -2 33 -1 42 3 10 3 19 6 21 6 6 -2 42 41 43
52 1 6 5 1 9 -13 7 -21 8 -18 10 20 1 25 5 36 8 25 l5 -20 8 20 c5 13 8 0 8
-40 1 -56 3 -61 25 -63 18 -1 25 5 32 30 14 48 32 46 36 -4 3 -40 5 -43 31
-43 15 0 31 -4 35 -10 4 -5 16 -10 27 -10 11 0 19 -5 18 -11 -1 -7 8 -9 22 -6
29 5 32 -4 8 -30 -16 -18 -16 -18 3 -12 10 4 24 11 30 15 5 5 21 5 33 2 23 -6
23 -7 -10 -24 -26 -14 -28 -18 -12 -16 12 2 26 6 29 10 10 10 66 9 60 -1 -6
-10 53 -36 62 -28 3 4 5 22 4 41 -2 20 3 37 12 42 7 4 25 37 39 73 25 65 97
266 101 285 6 28 39 121 46 128 4 4 18 -1 31 -12 20 -18 22 -22 9 -31 -8 -5
-22 -10 -30 -10 -9 0 -22 -19 -31 -44 -15 -42 -15 -45 3 -49 10 -3 18 -12 18
-21 0 -15 -5 -18 -40 -20 -21 -1 -30 -58 -11 -72 19 -15 7 -44 -19 -44 -28 0
-48 -50 -25 -62 25 -15 19 -41 -9 -36 -20 4 -25 -1 -34 -29 -6 -18 -7 -31 -2
-28 4 3 13 -2 19 -9 10 -12 5 -21 -26 -50 -28 -26 -33 -34 -19 -33 10 1 21 -4
23 -10 7 -19 -27 -29 -38 -12 -5 8 -9 9 -9 3 0 -5 19 -29 43 -51 23 -23 54
-54 69 -70 60 -63 75 -74 82 -58 10 28 26 15 25 -22 0 -51 3 -73 11 -73 4 0
12 -12 19 -26 12 -27 13 -25 86 86 41 62 75 116 75 121 0 4 4 9 9 11 8 3 111
157 137 205 47 85 79 130 91 126 7 -3 13 2 13 12 0 10 -5 13 -12 9 -7 -4 -8
-3 -4 4 4 7 16 12 27 12 12 0 19 7 19 20 0 11 5 20 10 20 6 0 15 10 20 23 20
43 48 82 58 80 6 -2 9 4 6 12 -7 17 14 48 26 40 5 -3 12 0 16 6 4 8 3 9 -4 5
-15 -9 -15 -1 -2 24 6 12 16 17 26 13 12 -4 14 1 12 23 -2 22 2 29 22 34 32 8
38 -7 11 -26z m-1081 2 c0 -19 -13 -27 -55 -32 -26 -3 -35 0 -35 11 0 9 9 15
25 15 14 0 25 5 25 10 0 6 9 10 20 10 11 0 20 -6 20 -14z m808 -33 c2 -12 -4
-23 -13 -27 -32 -12 -48 17 -23 42 17 17 32 10 36 -15z m677 -13 c6 -18 -9
-60 -21 -60 -3 0 -2 6 2 13 5 8 2 8 -9 -2 -14 -11 -20 -11 -32 -1 -21 18 -19
35 8 53 30 22 44 21 52 -3z m-1515 -41 c0 -14 -41 -48 -57 -49 -21 0 -15 31 7
37 11 3 20 9 20 14 0 5 7 9 15 9 8 0 15 -5 15 -11z m777 -73 c-9 -22 -47 -21
-47 2 0 10 5 23 12 30 16 16 43 -10 35 -32z m341 7 c2 -13 -4 -26 -15 -32 -28
-14 -47 2 -39 34 5 20 12 26 29 23 14 -2 23 -11 25 -25z m310 4 c5 -25 -16
-47 -44 -47 -19 0 -24 5 -24 25 0 16 6 25 15 25 8 0 15 5 15 11 0 18 35 5 38
-14z m-1705 -69 c-9 -49 -40 -94 -74 -108 -27 -11 -30 -17 -25 -42 3 -15 1
-28 -4 -28 -6 0 -10 6 -11 13 0 9 -2 9 -6 -1 -2 -6 -9 -10 -14 -6 -5 3 -9 -5
-9 -18 0 -13 -4 -18 -8 -13 -4 6 -14 12 -22 14 -8 2 -23 6 -32 8 -21 6 -25
-22 -5 -30 6 -3 2 -6 -10 -6 -12 -1 -23 3 -25 9 -1 5 -14 11 -28 13 -31 5 -37
34 -15 77 14 26 21 31 41 26 17 -5 26 -2 30 9 4 8 15 15 25 15 10 0 19 5 19
12 0 9 3 9 12 0 7 -7 20 -12 30 -12 10 0 18 -4 18 -9 0 -5 7 -12 16 -15 16 -6
63 39 64 61 0 22 20 63 30 63 5 0 7 -13 3 -32z m282 11 c8 -12 -23 -49 -42
-49 -17 0 -16 5 3 35 18 27 29 31 39 14z m-375 -38 c-24 -35 -30 -38 -30 -15
0 8 5 12 10 9 6 -3 10 0 10 7 0 15 21 40 28 33 2 -2 -6 -18 -18 -34z m1710 24
c15 -18 4 -52 -20 -60 -40 -13 -54 23 -23 57 20 22 27 22 43 3z m-625 -26 c7
-22 -10 -42 -30 -36 -16 6 -18 39 -3 48 20 13 26 11 33 -12z m775 -74 c-41
-41 -77 -75 -79 -75 -3 0 28 34 69 75 41 41 77 75 79 75 3 0 -28 -34 -69 -75z
m-1530 45 c0 -10 -26 -20 -33 -13 -3 3 -3 11 0 18 5 14 33 9 33 -5z m1048 -29
c-4 -36 -48 -44 -48 -9 0 29 17 48 37 41 8 -3 13 -16 11 -32z m-5138 -15 c0
-41 -2 -44 -30 -48 -29 -4 -30 -3 -30 32 0 40 14 60 42 60 15 0 18 -8 18 -44z
m5395 -2 c0 -26 -4 -29 -30 -29 -24 0 -29 4 -27 20 4 21 32 46 47 41 6 -1 10
-16 10 -32z m105 22 c0 -2 -8 -10 -17 -17 -16 -13 -17 -12 -4 4 13 16 21 21
21 13z m-4891 -35 c110 -56 178 -215 151 -348 -10 -46 -21 -66 -54 -100 -66
-66 -146 -67 -234 -3 -38 27 -83 84 -51 64 7 -4 4 8 -8 27 -11 19 -23 41 -27
49 -3 8 -4 5 -2 -8 2 -13 0 -20 -6 -16 -5 3 -7 15 -4 27 3 11 0 43 -5 71 -6
28 -10 68 -10 88 0 47 42 120 84 147 42 27 115 27 166 2z m4185 3 c8 -22 8
-22 -14 -34 -16 -9 -22 -8 -26 5 -6 15 11 45 26 45 4 0 11 -7 14 -16z m-722
-19 c0 -5 -5 -11 -11 -13 -6 -2 -11 4 -11 13 0 9 5 15 11 13 6 -2 11 -8 11
-13z m-3832 -40 c0 -19 -4 -35 -10 -35 -5 0 -10 16 -10 35 0 19 5 35 10 35 6
0 10 -16 10 -35z m5089 18 c13 -23 -4 -53 -30 -53 -25 0 -34 22 -19 49 13 25
36 27 49 4z m111 4 c0 -2 -10 -12 -22 -23 l-23 -19 19 23 c18 21 26 27 26 19z
m-1320 -17 c0 -9 -31 -30 -44 -30 -12 0 -6 28 7 33 20 9 37 8 37 -3z m628 -46
c-4 -21 -39 -26 -45 -8 -2 7 4 19 13 28 19 20 38 8 32 -20z m300 19 c13 -26 4
-43 -24 -43 -26 0 -33 27 -12 48 16 16 26 15 36 -5z m221 -25 c6 -16 4 -28 -6
-40 -29 -33 -62 4 -37 41 19 27 32 27 43 -1z m-1656 -2 c26 -20 21 -26 -13
-15 -16 6 -30 15 -30 20 0 13 22 10 43 -5z m-93 -26 c0 -11 -4 -20 -9 -20 -5
0 -7 9 -4 20 3 11 7 20 9 20 2 0 4 -9 4 -20z m1188 -29 c2 -25 -2 -29 -27 -33
-29 -4 -29 -4 -16 23 8 15 20 29 27 32 7 3 13 6 13 6 1 1 2 -12 3 -28z m632
16 c0 -2 -15 -16 -32 -33 l-33 -29 29 33 c28 30 36 37 36 29z m-132 -44 c3
-22 -22 -48 -38 -38 -14 8 -13 38 2 53 16 16 32 10 36 -15z m-240 -11 c4 -25
-23 -41 -40 -24 -7 7 -6 17 2 32 14 26 34 22 38 -8z m592 5 c0 -2 -17 -19 -37
-38 l-38 -34 34 38 c33 34 41 42 41 34z m-170 -10 c0 -2 -10 -12 -22 -23 l-23
-19 19 23 c18 21 26 27 26 19z m-720 -32 c0 -15 -6 -25 -14 -25 -22 0 -30 19
-16 35 18 22 30 18 30 -10z m770 21 c0 -2 -8 -10 -17 -17 -16 -13 -17 -12 -4
4 13 16 21 21 21 13z m-285 -37 c0 -17 -6 -25 -22 -27 -17 -3 -23 2 -23 15 0
22 20 45 35 40 5 -2 10 -15 10 -28z m-1695 11 c0 -5 -5 -10 -11 -10 -5 0 -7 5
-4 10 3 6 8 10 11 10 2 0 4 -4 4 -10z m1980 -13 c0 -2 -10 -12 -22 -23 l-23
-19 19 23 c18 21 26 27 26 19z m-1974 -34 c-10 -10 -19 5 -10 18 6 11 8 11 12
0 2 -7 1 -15 -2 -18z m2074 24 c0 -2 -10 -12 -22 -23 l-23 -19 19 23 c18 21
26 27 26 19z m-637 -13 c10 -10 -12 -44 -28 -44 -15 0 -21 31 -8 43 8 9 28 9
36 1z m-268 -25 c0 -7 -8 -15 -17 -17 -18 -3 -25 18 -11 32 10 10 28 1 28 -15z
m478 7 c3 -8 0 -22 -8 -32 -11 -15 -15 -16 -29 -5 -12 10 -13 18 -5 32 11 22
35 25 42 5z m87 1 c0 -2 -15 -16 -32 -33 l-33 -29 29 33 c28 30 36 37 36 29z
m205 -42 c-21 -25 -41 -43 -45 -40 -5 3 -22 -11 -39 -32 -28 -33 -72 -58 -54
-30 4 7 8 17 8 22 0 6 5 10 12 10 6 0 25 10 42 23 17 12 32 21 34 20 2 -2 18
14 36 35 46 52 50 46 6 -8z m-1921 20 c-4 -8 -10 -12 -15 -9 -14 8 -10 24 6
24 9 0 12 -6 9 -15z m1586 -40 c0 -20 -5 -25 -25 -25 -27 0 -33 18 -13 38 20
20 38 14 38 -13z m-1570 11 c0 -3 -4 -8 -10 -11 -5 -3 -10 -1 -10 4 0 6 5 11
10 11 6 0 10 -2 10 -4z m417 -28 c-3 -7 -5 -2 -5 12 0 14 2 19 5 13 2 -7 2
-19 0 -25z m125 17 c0 -5 -5 -11 -11 -13 -6 -2 -11 4 -11 13 0 9 5 15 11 13 6
-2 11 -8 11 -13z m558 -5 c0 -11 -7 -20 -15 -20 -15 0 -21 21 -8 33 12 13 23
7 23 -13z m237 -1 c16 -16 5 -39 -18 -39 -12 0 -19 7 -19 18 0 31 17 41 37 21z
m-1407 -14 c0 -8 -4 -15 -10 -15 -5 0 -10 7 -10 15 0 8 5 15 10 15 6 0 10 -7
10 -15z m80 1 c0 -3 -4 -8 -10 -11 -5 -3 -10 -1 -10 4 0 6 5 11 10 11 6 0 10
-2 10 -4z m1520 -33 c0 -8 -9 -17 -19 -20 -11 -3 -21 -13 -24 -24 -6 -23 -35
-25 -43 -4 -7 18 14 47 27 39 5 -3 9 1 9 8 0 8 5 19 12 26 14 14 38 -2 38 -25z
m441 0 c-12 -20 -14 -14 -5 12 4 9 9 14 11 11 3 -2 0 -13 -6 -23z m-1401 7 c0
-12 -40 -34 -48 -26 -3 4 3 13 14 21 22 17 34 19 34 5z m-546 -17 c4 -9 1 -21
-5 -27 -9 -8 -10 -7 -6 7 4 9 2 17 -3 17 -6 0 -10 5 -10 10 0 16 17 11 24 -7z
m1346 14 c0 -2 -10 -12 -22 -23 l-23 -19 19 23 c18 21 26 27 26 19z m-3900
-28 c0 -4 -5 -11 -10 -14 -6 -4 -8 -11 -5 -16 4 -5 1 -9 -4 -9 -14 0 -14 17 0
25 6 5 4 12 -8 20 -17 13 -16 14 5 8 12 -3 22 -9 22 -14z m2480 12 c0 -6 -4
-13 -10 -16 -5 -3 -10 1 -10 9 0 9 5 16 10 16 6 0 10 -4 10 -9z m1333 -42 c-7
-7 -19 -9 -28 -5 -13 5 -14 10 -4 27 10 20 12 20 27 5 12 -12 13 -19 5 -27z
m-856 -31 c-2 -13 -4 -5 -4 17 -1 22 1 32 4 23 2 -10 2 -28 0 -40z m-461 15
c-10 -10 -19 5 -10 18 6 11 8 11 12 0 2 -7 1 -15 -2 -18z m574 23 c0 -11 -19
-15 -25 -6 -3 5 1 10 9 10 9 0 16 -2 16 -4z m758 -46 c-18 -27 -37 -50 -41
-50 -8 0 22 48 51 83 27 31 23 18 -10 -33z m-1264 24 c9 -22 -3 -32 -14 -14
-12 19 -12 30 -1 30 5 0 12 -7 15 -16z m-2544 -2 c0 -4 -10 -9 -22 -9 -18 -2
-20 0 -8 7 18 12 30 13 30 2z m3080 -2 c0 -5 -9 -10 -21 -10 -11 0 -17 5 -14
10 3 6 13 10 21 10 8 0 14 -4 14 -10z m-710 -42 c15 -21 17 -28 6 -19 -16 13
-41 51 -33 51 2 0 14 -15 27 -32z m537 10 c-3 -8 -6 -5 -6 6 -1 11 2 17 5 13
3 -3 4 -12 1 -19z m837 6 c8 -20 -1 -34 -20 -34 -8 0 -14 8 -14 18 0 33 23 44
34 16z m-3760 -6 c-3 -4 -9 -8 -15 -8 -5 0 -9 4 -9 8 0 5 7 9 15 9 8 0 12 -4
9 -9z m2516 8 c0 -3 -4 -8 -10 -11 -5 -3 -10 -1 -10 4 0 6 5 11 10 11 6 0 10
-2 10 -4z m805 -34 c-2 -3 -12 -1 -22 2 -15 6 -15 9 -3 16 13 8 35 -8 25 -18z
m690 -52 c-43 -44 -81 -77 -84 -75 -7 7 -51 -37 -46 -45 2 -4 -33 -41 -79 -83
-72 -66 -83 -73 -82 -51 1 13 15 37 31 52 16 15 23 19 16 10 -24 -32 6 -19 46
19 21 20 42 36 48 34 5 -1 6 1 2 5 -10 11 -38 14 -32 4 3 -4 -3 -14 -13 -21
-15 -13 -16 -12 -3 4 7 9 10 17 6 17 -4 0 -2 7 5 15 7 8 16 13 20 10 5 -3 11
-1 15 5 4 6 10 8 14 6 4 -3 27 15 51 39 24 24 46 42 50 40 4 -2 29 18 55 45
27 28 52 50 54 50 3 0 -30 -36 -74 -80z m-3985 44 c0 -16 -2 -16 -24 -8 -13 5
-14 9 -5 20 13 16 29 9 29 -12z m3030 22 c0 -3 -4 -8 -10 -11 -5 -3 -10 -1
-10 4 0 6 5 11 10 11 6 0 10 -2 10 -4z m930 1 c0 -2 -17 -19 -37 -38 l-38 -34
34 38 c33 34 41 42 41 34z m-1450 -27 c0 -5 -4 -10 -10 -10 -5 0 -10 5 -10 10
0 6 5 10 10 10 6 0 10 -4 10 -10z m1180 -27 c0 -7 -9 -13 -20 -13 -23 0 -24 3
-8 30 13 20 28 10 28 -17z m-753 -35 c-2 -13 -4 -3 -4 22 0 25 2 35 4 23 2
-13 2 -33 0 -45z m123 56 c0 -12 -31 -35 -40 -29 -16 10 -12 25 5 19 8 -4 15
-1 15 5 0 6 5 11 10 11 6 0 10 -3 10 -6z m-660 -24 c6 -11 8 -20 6 -20 -3 0
-10 9 -16 20 -6 11 -8 20 -6 20 3 0 10 -9 16 -20z m880 -1 c0 -5 -4 -9 -10 -9
-5 0 -10 7 -10 16 0 8 5 12 10 9 6 -3 10 -10 10 -16z m-975 1 c-3 -5 -10 -10
-16 -10 -5 0 -9 5 -9 10 0 6 7 10 16 10 8 0 12 -4 9 -10z m548 -41 c-6 -6 -7
3 -4 23 4 28 6 29 9 9 2 -13 0 -27 -5 -32z m-323 37 c0 -11 -19 -15 -25 -6 -3
5 1 10 9 10 9 0 16 -2 16 -4z m380 -12 c0 -8 -4 -12 -10 -9 -5 3 -10 10 -10
16 0 5 5 9 10 9 6 0 10 -7 10 -16z m841 -7 c-10 -9 -11 -8 -5 6 3 10 9 15 12
12 3 -3 0 -11 -7 -18z m-3962 -7 c116 -59 184 -224 147 -354 -17 -59 -76 -133
-96 -121 -6 3 -10 1 -10 -5 0 -6 -6 -10 -12 -9 -7 1 -21 -1 -31 -6 -43 -19
-155 43 -191 105 -10 18 -14 30 -8 26 8 -5 10 -2 6 8 -3 9 -11 13 -17 9 -5 -3
-7 -1 -3 5 3 6 1 23 -4 38 -6 15 -15 60 -21 100 -9 65 -8 79 9 117 21 46 54
83 87 97 36 15 105 11 144 -10z m3250 -3 c13 -17 5 -27 -23 -27 -20 0 -20 0 0
16 10 8 13 13 7 9 -7 -3 -13 -1 -13 4 0 15 15 14 29 -2z m217 -14 c-10 -10
-19 5 -10 18 6 11 8 11 12 0 2 -7 1 -15 -2 -18z m-719 3 c-3 -8 -1 -17 6 -19
7 -2 8 -8 4 -13 -4 -5 -12 -2 -17 6 -13 20 -12 40 1 40 6 0 9 -6 6 -14z
m-2496 -37 c6 -12 8 -36 5 -55 -5 -26 -3 -35 12 -43 21 -11 48 -92 39 -116 -9
-21 -34 -19 -47 4 -5 11 -10 35 -10 55 0 19 -11 56 -25 82 -31 58 -33 94 -5
94 10 0 24 -9 31 -21z m2876 -11 c-3 -7 -5 -2 -5 12 0 14 2 19 5 13 2 -7 2
-19 0 -25z m331 14 c2 -7 -5 -12 -17 -12 -11 0 -23 -5 -27 -11 -5 -8 -10 -6
-16 5 -5 9 -6 21 -3 26 8 14 58 7 63 -8z m-220 -4 c17 -17 15 -25 -8 -31 -11
-3 -20 -1 -20 4 0 5 6 9 13 10 10 0 10 2 0 6 -14 5 -18 23 -5 23 4 0 13 -5 20
-12z m-728 -17 c0 -6 -4 -13 -10 -16 -5 -3 -10 1 -10 9 0 9 5 16 10 16 6 0 10
-4 10 -9z m265 -1 c-3 -5 -10 -10 -16 -10 -5 0 -9 5 -9 10 0 6 7 10 16 10 8 0
12 -4 9 -10z m-76 -34 c-3 -3 -11 5 -18 17 -13 21 -12 21 5 5 10 -10 16 -20
13 -22z m741 24 c0 -5 -4 -10 -10 -10 -5 0 -10 5 -10 10 0 6 5 10 10 10 6 0
10 -4 10 -10z m0 -30 c0 -5 -4 -10 -10 -10 -5 0 -10 5 -10 10 0 6 5 10 10 10
6 0 10 -4 10 -10z m-898 -22 c-7 -7 -12 -8 -12 -2 0 14 12 26 19 19 2 -3 -1
-11 -7 -17z m693 12 c-3 -5 -13 -10 -21 -10 -8 0 -14 5 -14 10 0 6 9 10 21 10
11 0 17 -4 14 -10z m195 -20 c0 -5 -4 -10 -10 -10 -5 0 -10 5 -10 10 0 6 5 10
10 10 6 0 10 -4 10 -10z m-855 -30 c-3 -5 -11 -10 -16 -10 -6 0 -7 5 -4 10 3
6 11 10 16 10 6 0 7 -4 4 -10z m803 -2 c-6 -18 -28 -21 -28 -4 0 9 7 16 16 16
9 0 14 -5 12 -12z m-504 -368 c-3 -2 -9 2 -13 9 -7 10 -13 10 -29 2 -34 -18
-39 -12 -8 8 28 19 31 19 42 3 7 -9 10 -19 8 -22z m-33 -28 c-7 -2 -18 1 -23
6 -8 8 -4 9 13 5 13 -4 18 -8 10 -11z m1469 -16 c0 -3 -4 -8 -10 -11 -5 -3
-10 -1 -10 4 0 6 5 11 10 11 6 0 10 -2 10 -4z m-100 -36 c0 -5 -4 -10 -10 -10
-5 0 -10 5 -10 10 0 6 5 10 10 10 6 0 10 -4 10 -10z m-1476 -19 c3 -4 -4 -17
-17 -27 -22 -19 -22 -19 -4 2 9 11 14 24 10 27 -3 4 -4 7 0 7 3 0 8 -4 11 -9z
m1391 -11 c0 -7 -6 -15 -12 -17 -8 -3 -13 4 -13 17 0 13 5 20 13 18 6 -3 12
-11 12 -18z m-75 -19 c0 -12 -20 -25 -27 -18 -7 7 6 27 18 27 5 0 9 -4 9 -9z
m-1629 -19 c-7 -2 -18 1 -23 6 -8 8 -4 9 13 5 13 -4 18 -8 10 -11z m1837 -7
c-3 -3 -23 -9 -43 -12 -28 -5 -36 -3 -31 6 4 6 16 9 27 6 13 -4 21 -1 25 10 5
11 10 13 17 6 6 -6 8 -13 5 -16z m-1994 -5 c14 0 28 -4 31 -10 8 -13 -20 -13
-68 1 -21 5 -35 14 -32 20 4 5 13 5 25 -1 10 -5 30 -10 44 -10z m1721 10 c3
-5 -1 -10 -10 -10 -9 0 -13 5 -10 10 3 6 8 10 10 10 2 0 7 -4 10 -10z m171 -9
c-4 -5 0 -12 6 -14 7 -3 2 -6 -11 -6 -20 -1 -21 1 -11 14 14 16 25 21 16 6z
m-226 -11 c0 -5 -5 -10 -11 -10 -5 0 -7 5 -4 10 3 6 8 10 11 10 2 0 4 -4 4
-10z m193 -13 c4 -10 -3 -12 -27 -8 -30 4 -30 5 -6 12 14 4 26 7 26 8 1 1 4
-5 7 -12z m84 -3 c-3 -3 -12 -4 -19 -1 -8 3 -5 6 6 6 11 1 17 -2 13 -5z m-154
-11 c-7 -2 -19 -2 -25 0 -7 3 -2 5 12 5 14 0 19 -2 13 -5z m-153 -27 c0 -2
-13 -6 -29 -8 -17 -2 -28 -1 -25 4 5 8 54 12 54 4z m-1561 -32 c9 -3 11 -8 5
-14 -10 -10 -92 6 -109 21 -9 9 73 3 104 -7z m-61 -31 c-10 -2 -28 -2 -40 0
-13 2 -5 4 17 4 22 1 32 -1 23 -4z m272 -7 c0 -3 -4 -8 -10 -11 -5 -3 -10 -1
-10 4 0 6 5 11 10 11 6 0 10 -2 10 -4z m-60 -69 c0 -5 -4 -5 -10 -2 -5 3 -10
14 -10 23 0 15 2 15 10 2 5 -8 10 -19 10 -23z m21 -28 c-5 -13 -10 -19 -10
-12 -1 15 10 45 15 40 3 -2 0 -15 -5 -28z m124 -49 c3 -5 1 -10 -4 -10 -6 0
-11 5 -11 10 0 6 2 10 4 10 3 0 8 -4 11 -10z m-158 -32 c-3 -8 -6 -5 -6 6 -1
11 2 17 5 13 3 -3 4 -12 1 -19z m-40 -35 c-3 -10 -5 -4 -5 12 0 17 2 24 5 18
2 -7 2 -21 0 -30z m388 21 c14 -6 13 -8 -5 -21 -17 -12 -24 -13 -33 -4 -9 9
-8 14 3 21 18 12 15 11 35 4z m-231 -19 c-4 -8 -8 -15 -10 -15 -2 0 -4 7 -4
15 0 8 4 15 10 15 5 0 7 -7 4 -15z m271 -35 c-3 -5 -16 -10 -28 -10 -18 0 -19
2 -7 10 20 13 43 13 35 0z m-608 -6 c-3 -3 -12 -4 -19 -1 -8 3 -5 6 6 6 11 1
17 -2 13 -5z m727 -3 c3 -5 -3 -11 -13 -14 -14 -3 -18 -1 -14 9 6 16 19 18 27
5z m66 -47 c0 -2 -7 -4 -15 -4 -8 0 -15 4 -15 10 0 5 7 7 15 4 8 -4 15 -8 15
-10z m-297 -1 c-7 -2 -19 -2 -25 0 -7 3 -2 5 12 5 14 0 19 -2 13 -5z m272 -14
c14 -7 10 -8 -15 -4 -19 3 -43 7 -52 8 -10 1 -18 5 -18 10 0 9 51 0 85 -14z
m-958 -35 c-3 -3 -12 -4 -19 -1 -8 3 -5 6 6 6 11 1 17 -2 13 -5z m587 0 c22
-8 2 -34 -26 -34 -24 0 -58 18 -58 30 0 11 59 13 84 4z m346 -6 c0 -5 8 -8 18
-8 10 0 19 -7 19 -15 0 -13 -9 -14 -46 -9 -46 7 -69 23 -49 35 14 9 58 6 58
-3z m-260 -28 c-8 -6 -10 -10 -5 -10 14 0 -17 -20 -33 -20 -17 0 7 38 28 43
22 5 27 -2 10 -13z m-410 -10 c-8 -5 -22 -9 -30 -9 -10 0 -8 3 5 9 27 12 43
12 25 0z m1753 -5 c-3 -9 -8 -14 -10 -11 -3 3 -2 9 2 15 9 16 15 13 8 -4z
m-1256 -10 c0 -8 -3 -15 -7 -15 -3 0 -26 -18 -50 -40 -24 -22 -48 -40 -52 -40
-4 0 -8 -6 -8 -14 0 -8 -12 -24 -26 -37 -24 -23 -81 -81 -121 -124 -31 -34
-77 -71 -68 -55 8 13 7 13 -8 1 -20 -16 -21 -7 -6 40 19 55 126 179 156 179 7
0 42 24 78 53 36 28 76 55 88 59 12 3 22 6 23 7 0 1 1 -6 1 -14z m1017 3 c-4
-7 -3 -8 4 -4 15 9 92 -12 92 -24 0 -6 5 -9 11 -7 6 1 14 -4 16 -10 5 -13 -60
9 -83 28 -6 5 -14 6 -17 3 -10 -10 -58 6 -52 16 3 6 13 10 21 10 9 0 12 -5 8
-12z m-939 -8 c-3 -5 7 -12 22 -15 63 -13 103 -26 103 -34 0 -17 -123 3 -155
25 -11 8 -16 15 -12 15 4 1 11 2 16 3 5 0 13 4 17 9 10 10 16 9 9 -3z m-446
-11 c17 -6 31 -14 31 -17 -1 -23 -53 -57 -71 -46 -8 4 -7 9 2 15 9 5 -4 7 -33
5 -26 -3 -50 0 -53 5 -6 9 21 14 63 10 12 -1 22 3 22 9 0 5 -12 10 -27 11 -25
0 -26 1 -8 9 27 12 37 12 74 -1z m141 -79 c0 -10 -7 -21 -16 -24 -50 -19 -82
14 -37 38 32 16 53 11 53 -14z m-2821 -157 c28 -87 90 -295 139 -463 49 -168
153 -523 231 -789 78 -265 141 -485 138 -487 -2 -2 -22 58 -44 134 -22 75
-149 500 -282 943 -132 444 -241 809 -241 813 0 26 16 -16 59 -151z m3031 116
c0 -7 10 -9 24 -5 21 5 24 3 21 -14 -4 -19 -2 -19 18 -5 24 17 51 20 42 5 -3
-5 -2 -10 4 -10 5 0 11 6 14 13 2 6 8 0 12 -15 4 -16 10 -28 14 -28 4 0 7 -18
8 -40 2 -34 -1 -40 -18 -40 -11 0 -19 7 -20 18 0 10 -3 12 -6 5 -2 -7 -14 -13
-25 -13 -13 0 -18 5 -15 14 3 8 -2 16 -15 19 -11 3 -17 10 -14 15 3 6 -2 8
-13 5 -28 -7 -68 23 -65 50 1 12 3 25 3 30 2 12 31 8 31 -4z m1171 -66 c-11
-21 -20 -35 -21 -31 0 12 33 78 38 74 2 -2 -6 -21 -17 -43z m-2019 -23 c-36
-17 -70 -26 -79 -23 -23 9 70 52 112 52 26 0 21 -4 -33 -29z m1085 -2 c-3 -8
-6 -5 -6 6 -1 11 2 17 5 13 3 -3 4 -12 1 -19z m219 -87 c3 -22 2 -23 -7 -8 -5
9 -12 25 -14 35 -2 9 -6 26 -10 37 -3 11 1 7 10 -9 9 -15 19 -40 21 -55z
m-1001 4 c-51 -45 -112 -88 -147 -103 -23 -9 -26 -9 -21 3 3 10 -1 15 -12 15
-31 0 158 118 190 119 l30 1 -40 -35z m1621 -92 c-8 -15 -15 -25 -16 -21 0 12
23 58 27 54 3 -2 -2 -17 -11 -33z m-2847 -16 c36 -18 48 -46 42 -97 l-6 -45
-28 48 c-15 26 -30 47 -32 47 -3 0 -2 -45 1 -100 4 -55 4 -100 1 -100 -3 0
-27 38 -53 85 -26 47 -49 84 -50 82 -4 -4 16 -291 21 -296 3 -2 5 19 5 47 0
88 21 104 72 55 l28 -27 0 30 c0 16 4 35 9 43 13 20 35 8 37 -20 7 -86 9 -99
19 -99 6 0 7 -3 0 -8 -12 -8 -15 -73 -4 -66 4 2 6 13 4 24 -2 11 1 22 6 26 5
3 9 2 8 -3 -1 -4 0 -10 1 -13 6 -16 7 -39 2 -36 -4 2 -13 -2 -20 -10 -7 -8 -9
-14 -5 -14 4 0 1 -5 -7 -10 -22 -14 -87 -12 -119 4 -45 24 -97 89 -121 152
-43 114 -8 258 72 297 39 20 84 21 117 4z m1541 -17 c-14 -9 -7 -14 13 -11 4
1 10 -6 14 -14 5 -14 9 -13 32 7 14 12 20 16 14 8 -18 -20 -16 -30 7 -30 11 0
20 -2 20 -5 0 -5 -49 -106 -55 -113 -1 -1 -16 3 -33 9 -28 9 -30 13 -21 31 15
27 4 35 -13 9 -16 -25 -33 -28 -23 -3 4 9 8 22 9 29 1 7 10 21 20 32 10 11 15
25 11 31 -9 14 -28 1 -21 -15 6 -17 -30 -50 -39 -35 -8 13 45 78 65 79 13 1
13 0 0 -9z m178 -92 c32 1 42 -11 21 -24 -8 -4 -7 -9 2 -16 11 -8 10 -9 -3 -4
-10 3 -21 0 -25 -7 -5 -8 -9 -3 -13 12 -3 14 -11 26 -18 27 -7 1 -8 0 -2 -3
16 -8 12 -26 -5 -19 -11 4 -22 -8 -37 -39 -12 -25 -29 -45 -37 -45 -10 0 -12
3 -5 8 6 4 10 17 9 29 -1 12 2 20 6 18 4 -3 10 2 13 11 3 8 2 12 -4 9 -6 -4
-7 1 -3 12 12 34 26 45 47 37 12 -4 36 -6 54 -6z m480 -13 c-3 -3 -9 2 -12 12
-6 14 -5 15 5 6 7 -7 10 -15 7 -18z m-281 -37 c-2 -7 0 -21 5 -30 5 -10 5 -18
1 -18 -5 0 -14 -30 -21 -67 -13 -70 -18 -81 -28 -70 -4 3 1 39 10 79 10 40 19
83 22 96 2 12 7 22 10 22 3 0 4 -6 1 -12z m824 -45 c-11 -21 -20 -35 -21 -31
0 12 33 78 38 74 2 -2 -6 -21 -17 -43z m-926 27 c-3 -5 -11 -10 -16 -10 -6 0
-7 5 -4 10 3 6 11 10 16 10 6 0 7 -4 4 -10z m-268 -16 c-3 -3 -12 -4 -19 -1
-8 3 -5 6 6 6 11 1 17 -2 13 -5z m199 -12 c-3 -5 8 -7 23 -4 35 5 51 -16 27
-34 -13 -9 -14 -13 -4 -17 8 -3 1 -9 -16 -16 -33 -13 -70 -6 -59 12 11 17 13
38 3 32 -10 -6 -21 20 -13 29 9 9 45 7 39 -2z m524 -97 c0 -5 -5 -3 -10 5 -5
8 -10 20 -10 25 0 6 5 3 10 -5 5 -8 10 -19 10 -25z m-490 1 c0 -2 -13 -6 -29
-8 -17 -2 -28 -1 -25 4 5 8 54 12 54 4z m-10 -36 c0 -5 -7 -10 -16 -10 -8 0
-12 5 -9 10 3 6 10 10 16 10 5 0 9 -4 9 -10z m876 -67 c-14 -26 -25 -45 -26
-41 0 12 43 98 48 94 2 -2 -8 -26 -22 -53z m-250 -19 c4 -17 2 -29 -7 -35 -23
-14 -29 -10 -29 19 0 48 25 59 36 16z m17 -91 c2 -18 9 -39 17 -47 7 -9 9 -16
4 -16 -4 0 -3 -5 4 -12 17 -17 15 -35 -5 -42 -10 -3 -23 -8 -29 -11 -17 -8
-26 25 -12 42 7 8 13 23 15 33 3 22 -12 36 -22 20 -9 -15 -25 -2 -25 20 0 24
31 63 42 52 4 -4 9 -22 11 -39z m133 -100 c-14 -26 -25 -45 -26 -41 0 12 43
98 48 94 2 -2 -8 -26 -22 -53z m-784 -45 c-8 -8 -9 -4 -5 13 4 13 8 18 11 10
2 -7 -1 -18 -6 -23z m670 -20 c-7 -7 -12 -8 -12 -2 0 14 12 26 19 19 2 -3 -1
-11 -7 -17z m19 -134 c-16 -33 -30 -56 -31 -52 0 11 53 118 58 114 2 -2 -10
-30 -27 -62z m-105 -220 c-25 -49 -45 -86 -45 -82 -1 11 83 178 87 174 2 -2
-17 -44 -42 -92z m-216 -460 c-217 -458 -254 -532 -285 -569 -20 -23 -18 -17
9 28 19 33 125 250 237 483 111 233 204 423 205 421 2 -2 -73 -165 -166 -363z
m-2861 -144 c0 -9 -4 -8 -9 5 -5 11 -9 27 -9 35 0 9 4 8 9 -5 5 -11 9 -27 9
-35z m783 -257 c32 -9 55 -20 52 -24 -2 -4 6 -15 18 -24 l23 -17 -25 7 c-39
11 -123 51 -145 70 l-20 17 20 -7 c11 -3 46 -13 77 -22z m779 -233 c354 -106
649 -196 654 -202 7 -7 3 -9 -13 -5 -20 5 -22 3 -10 -11 11 -14 10 -15 -5 -9
-10 4 -23 7 -28 7 -5 0 -8 5 -6 12 1 7 -20 20 -48 29 -63 22 -75 22 -50 2 18
-14 18 -15 2 -9 -10 3 -23 6 -28 6 -6 0 -8 4 -4 9 3 5 -20 19 -50 30 -65 25
-77 26 -51 6 11 -8 17 -15 15 -15 -19 0 -303 91 -308 98 -10 16 -63 39 -152
66 -100 31 -121 33 -93 10 13 -11 14 -14 4 -11 -9 3 -103 31 -210 63 -143 43
-208 68 -245 93 -27 19 -43 32 -34 28 9 -3 306 -92 660 -197z m989 27 c0 -2
-17 -19 -37 -38 l-38 -34 34 38 c33 34 41 42 41 34z m40 -70 c0 -2 -17 -19
-37 -38 l-38 -34 34 38 c33 34 41 42 41 34z m-283 -213 c-3 -3 -12 -4 -19 -1
-8 3 -5 6 6 6 11 1 17 -2 13 -5z m-32 -359 c-16 -14 -37 -25 -45 -25 -8 0 1
11 20 25 45 31 64 32 25 0z m-1485 -705 c0 -13 -34 -30 -59 -30 -20 0 -28 19
-14 33 10 11 73 8 73 -3z"/>
<path d="M5730 7146 c0 -9 0 -19 -1 -23 0 -4 4 -9 10 -11 14 -5 14 35 1 43 -5
3 -10 -1 -10 -9z"/>
<path d="M5791 7131 c-25 -46 2 -57 33 -13 11 15 16 24 11 20 -4 -4 -14 -3
-21 3 -9 8 -15 5 -23 -10z"/>
<path d="M6963 6668 c-12 -21 -12 -39 0 -35 7 2 12 8 12 13 0 5 4 15 8 22 5 6
4 12 -2 12 -5 0 -13 -6 -18 -12z"/>
<path d="M6921 6636 c-9 -10 -9 -16 -1 -21 13 -8 23 0 26 20 3 19 -10 19 -25
1z"/>
<path d="M6217 6574 c17 -26 28 -30 39 -13 7 11 -18 31 -43 35 -8 1 -7 -6 4
-22z"/>
<path d="M6846 6576 c-19 -16 -24 -26 -16 -31 14 -9 47 19 47 40 0 8 -1 15 -1
15 -1 -1 -14 -11 -30 -24z"/>
<path d="M7014 6534 c-18 -14 -18 -15 4 -4 12 6 22 13 22 15 0 8 -5 6 -26 -11z"/>
<path d="M6897 6505 c-20 -14 -37 -28 -37 -31 0 -2 18 8 40 22 35 23 47 34 37
34 -1 0 -19 -11 -40 -25z"/>
<path d="M7026 6517 c-18 -13 -18 -14 0 -21 10 -4 15 -4 11 0 -4 4 -2 13 4 21
15 17 8 17 -15 0z"/>
<path d="M6280 6505 c-7 -9 -11 -17 -9 -20 3 -2 10 5 17 15 14 24 10 26 -8 5z"/>
<path d="M6754 6499 c-8 -14 14 -19 25 -6 8 10 7 14 -5 14 -8 0 -17 -4 -20 -8z"/>
<path d="M6934 6484 c-18 -14 -18 -15 4 -4 12 6 22 13 22 15 0 8 -5 6 -26 -11z"/>
<path d="M6944 6464 c-18 -14 -18 -15 4 -4 12 6 22 13 22 15 0 8 -5 6 -26 -11z"/>
<path d="M5502 6430 c0 -14 2 -19 5 -12 2 6 2 18 0 25 -3 6 -5 1 -5 -13z"/>
<path d="M6773 6425 c0 -8 4 -12 9 -9 5 3 6 10 3 15 -9 13 -12 11 -12 -6z"/>
<path d="M6865 6420 c-3 -5 -1 -10 4 -10 6 0 11 5 11 10 0 6 -2 10 -4 10 -3 0
-8 -4 -11 -10z"/>
<path d="M5452 6374 c-35 -12 -66 -23 -70 -24 -4 -1 -14 -5 -22 -7 -27 -8 -44
-19 -48 -33 -3 -8 0 -10 8 -5 9 5 11 4 6 -4 -4 -6 -2 -18 4 -26 9 -10 9 -15 1
-15 -6 0 -18 12 -28 28 -10 15 -20 29 -23 32 -4 3 -10 13 -13 24 -6 14 -10 16
-21 7 -7 -6 -16 -8 -19 -5 -4 4 -22 -5 -41 -20 -19 -14 -43 -26 -53 -26 -20 0
-43 -18 -43 -33 0 -5 7 -6 16 -3 8 3 12 2 9 -4 -3 -5 12 -18 34 -29 22 -12 43
-26 47 -33 6 -10 5 -10 -8 0 -13 10 -17 10 -21 -2 -3 -7 0 -19 6 -25 8 -8 8
-11 0 -11 -16 0 -74 63 -69 75 2 7 -4 11 -15 10 -21 -1 -39 -15 -20 -15 7 0 9
-5 6 -10 -4 -7 -12 -7 -23 -1 -12 7 -24 1 -48 -25 -18 -19 -40 -34 -49 -34
-11 0 -15 -5 -12 -14 3 -8 -2 -16 -12 -19 -34 -9 -17 -35 43 -66 34 -18 69
-38 78 -44 14 -9 22 -7 41 11 13 12 29 22 35 22 11 0 16 13 13 33 0 4 2 6 6 6
20 -3 26 2 13 11 -12 8 -10 10 8 10 15 0 21 4 16 12 -5 7 -3 8 5 4 15 -10 53
23 44 37 -3 5 -1 7 5 4 5 -4 34 9 64 28 31 21 61 34 72 31 10 -3 32 2 47 10
16 8 57 15 91 17 42 1 65 7 69 16 4 11 7 11 20 -1 19 -18 120 -41 132 -29 5 5
5 11 -2 15 -6 4 -5 18 5 41 25 60 20 68 -53 81 -103 20 -170 19 -231 -2z m-7
-69 c4 -26 3 -36 -3 -30 -5 6 -13 28 -17 50 -4 26 -3 36 3 30 5 -5 13 -28 17
-50z m-165 -5 c0 -5 -5 -10 -11 -10 -5 0 -7 5 -4 10 3 6 8 10 11 10 2 0 4 -4
4 -10z m40 -88 c0 -4 -9 7 -20 23 -11 17 -20 35 -20 40 0 6 9 -5 20 -23 11
-18 20 -36 20 -40z m-145 37 c11 -17 -1 -21 -15 -4 -8 9 -8 15 -2 15 6 0 14
-5 17 -11z m-114 -86 c13 -16 12 -17 -3 -4 -10 7 -18 15 -18 17 0 8 8 3 21
-13z"/>
<path d="M6805 6380 c-3 -5 -2 -10 4 -10 5 0 13 5 16 10 3 6 2 10 -4 10 -5 0
-13 -4 -16 -10z"/>
<path d="M6207 6359 c-4 -16 -3 -18 9 -8 16 13 19 29 5 29 -5 0 -11 -9 -14
-21z"/>
<path d="M5765 6348 c-27 -87 -30 -128 -9 -128 24 0 137 -118 130 -136 -3 -8
-1 -12 4 -9 10 6 26 -41 21 -64 -1 -7 2 -10 9 -6 7 4 9 17 5 29 -13 45 -14 56
-4 50 6 -3 8 -9 5 -12 -3 -3 -1 -11 6 -19 6 -8 13 -29 14 -46 1 -18 0 -26 -3
-19 -7 17 -23 5 -17 -13 5 -11 10 -12 27 -4 17 10 19 9 14 -6 -4 -9 -7 -19 -7
-21 0 -3 -5 -2 -11 2 -8 4 -10 -13 -9 -57 1 -35 1 -68 0 -74 -2 -5 -4 -31 -4
-57 -2 -59 17 -46 20 14 1 24 3 51 3 61 1 10 6 15 11 12 6 -4 10 5 10 19 0 16
-6 26 -15 26 -9 0 -12 6 -9 15 4 8 10 12 15 9 14 -8 8 115 -7 160 -8 21 -11
42 -8 47 14 23 -9 25 -32 2 -14 -14 -28 -22 -32 -18 -4 4 0 12 8 18 41 32 43
44 14 86 -15 23 -33 41 -41 41 -8 0 -11 -4 -8 -10 3 -5 1 -10 -5 -10 -7 0 -9
8 -4 23 12 38 10 44 -30 76 -42 34 -55 38 -61 19z"/>
<path d="M6489 6343 c-13 -17 -13 -17 6 -3 11 8 22 16 24 17 2 2 0 3 -6 3 -6
0 -17 -8 -24 -17z"/>
<path d="M6827 6353 c-4 -3 -7 -11 -7 -17 0 -6 5 -5 12 2 6 6 9 14 7 17 -3 3
-9 2 -12 -2z"/>
<path d="M6780 6320 c-14 -11 -20 -20 -14 -20 6 0 19 9 29 20 23 25 17 25 -15
0z"/>
<path d="M6148 6300 c-16 -17 -28 -34 -28 -39 0 -4 -16 -25 -34 -45 l-35 -36
15 -42 c8 -23 15 -63 17 -88 l2 -47 39 33 c22 19 46 34 53 34 8 0 11 5 8 10
-3 6 -1 10 5 10 7 0 9 7 6 16 -3 8 -2 12 4 9 12 -7 70 32 70 47 0 6 -8 4 -18
-5 -10 -10 -27 -17 -38 -17 -14 0 -11 6 17 30 30 24 36 36 35 62 -3 58 -12 61
-67 22 -28 -19 -54 -32 -57 -29 -4 4 18 29 48 57 49 45 54 59 6 19 -18 -15
-19 -15 -14 7 8 30 -2 28 -34 -8z m32 -94 c0 -2 -16 -13 -35 -25 -19 -11 -35
-18 -35 -16 0 5 61 45 68 45 1 0 2 -2 2 -4z"/>
<path d="M6579 6313 c-13 -17 -13 -17 6 -3 11 8 22 16 24 17 2 2 0 3 -6 3 -6
0 -17 -8 -24 -17z"/>
<path d="M5916 6292 c-8 -14 44 -83 57 -75 8 5 8 8 -1 11 -7 2 -12 8 -12 14 0
16 -38 60 -44 50z"/>
<path d="M6092 6278 c-7 -7 -12 -19 -12 -27 0 -11 5 -8 16 7 18 25 15 39 -4
20z"/>
<path d="M6529 6273 c-13 -16 -12 -17 4 -4 9 7 17 15 17 17 0 8 -8 3 -21 -13z"/>
<path d="M5130 6216 c0 -2 7 -9 15 -16 9 -7 15 -8 15 -2 0 5 -7 12 -15 16 -8
3 -15 4 -15 2z"/>
<path d="M5977 6203 c-4 -3 -7 -11 -7 -17 0 -6 5 -5 12 2 6 6 9 14 7 17 -3 3
-9 2 -12 -2z"/>
<path d="M5638 6150 c-4 -27 -2 -30 23 -30 15 0 29 3 32 8 2 4 3 2 1 -4 -3
-16 31 -35 43 -23 6 6 21 -5 41 -30 21 -26 38 -38 47 -35 18 7 20 25 3 22 -7
-2 -12 2 -11 8 1 7 -6 10 -17 7 -15 -4 -19 -1 -15 10 8 20 -33 63 -78 82 -52
22 -64 19 -69 -15z m96 -25 c-4 -8 -11 -15 -16 -15 -6 0 -5 6 2 15 7 8 14 15
16 15 2 0 1 -7 -2 -15z"/>
<path d="M5740 6091 c0 -5 5 -13 10 -16 6 -3 10 -2 10 4 0 5 -4 13 -10 16 -5
3 -10 2 -10 -4z"/>
<path d="M5554 6079 c-3 -5 6 -9 20 -9 31 0 34 6 6 13 -11 3 -23 1 -26 -4z"/>
<path d="M5478 6053 c7 -3 16 -2 19 1 4 3 -2 6 -13 5 -11 0 -14 -3 -6 -6z"/>
<path d="M5736 6027 c3 -10 9 -15 12 -12 3 3 0 11 -7 18 -10 9 -11 8 -5 -6z"/>
<path d="M6160 6030 c-9 -6 -10 -10 -3 -10 6 0 15 5 18 10 8 12 4 12 -15 0z"/>
<path d="M5820 6020 c0 -5 4 -10 9 -10 6 0 13 5 16 10 3 6 -1 10 -9 10 -9 0
-16 -4 -16 -10z"/>
<path d="M5760 6016 c0 -2 8 -10 18 -17 15 -13 16 -12 3 4 -13 16 -21 21 -21
13z"/>
<path d="M6111 6001 c-12 -22 -5 -27 19 -11 11 7 12 12 3 21 -8 8 -14 6 -22
-10z"/>
<path d="M6204 5992 c-29 -15 -72 -38 -97 -51 l-44 -24 -7 -71 c-3 -39 -9 -86
-12 -104 -6 -31 -5 -33 17 -30 14 2 23 9 21 17 -2 8 3 11 12 8 8 -3 42 -9 75
-13 44 -5 61 -3 61 5 0 7 5 9 10 6 6 -4 10 18 10 59 0 46 -4 66 -12 66 -7 0
-5 5 5 11 9 6 15 14 12 20 -4 5 -2 9 3 9 5 0 9 27 8 60 0 33 -3 60 -6 59 -3 0
-28 -12 -56 -27z m16 -131 c0 -10 -118 -36 -127 -27 -3 3 2 6 13 7 10 0 35 6
54 13 43 17 60 19 60 7z m-33 -77 c-3 -3 -12 -4 -19 -1 -8 3 -5 6 6 6 11 1 17
-2 13 -5z"/>
<path d="M5847 5993 c-3 -5 -2 -15 2 -22 7 -10 10 -10 16 -1 4 6 3 16 -3 22
-5 5 -12 6 -15 1z"/>
<path d="M5726 5977 c3 -10 9 -15 12 -12 3 3 0 11 -7 18 -10 9 -11 8 -5 -6z"/>
<path d="M5865 5940 c-3 -5 -1 -10 4 -10 6 0 11 5 11 10 0 6 -2 10 -4 10 -3 0
-8 -4 -11 -10z"/>
<path d="M5727 5813 c-9 -9 -9 -63 1 -63 4 0 7 16 7 35 0 19 0 35 -1 35 0 0
-4 -3 -7 -7z"/>
<path d="M5991 5734 c0 -11 3 -14 6 -6 3 7 2 16 -1 19 -3 4 -6 -2 -5 -13z"/>
<path d="M5920 5665 c0 -8 4 -15 8 -15 5 0 9 7 9 15 0 8 -4 15 -9 15 -4 0 -8
-7 -8 -15z"/>
<path d="M5665 5659 c-4 -6 -5 -12 -2 -15 2 -3 7 2 10 11 7 17 1 20 -8 4z"/>
<path d="M5894 5648 c-5 -7 -18 -34 -30 -59 -22 -47 -18 -69 11 -69 14 0 37
48 30 61 -4 5 -1 9 5 9 6 0 8 5 5 10 -3 6 -1 10 4 10 16 0 13 26 -3 39 -11 9
-16 9 -22 -1z"/>
<path d="M6011 5624 c-11 -40 -7 -58 12 -51 18 6 67 -22 67 -38 0 -8 -5 -15
-11 -15 -5 0 -8 4 -5 9 3 5 -7 11 -22 13 -15 3 -35 8 -44 12 -13 6 -22 -2 -38
-34 l-21 -41 21 -43 c32 -67 89 -111 95 -75 6 36 17 58 26 56 6 -1 18 17 28
41 18 45 35 47 24 3 -8 -36 6 -21 17 18 5 17 5 29 0 26 -19 -12 -20 17 -3 57
13 29 17 53 12 73 -4 17 -7 24 -8 17 0 -8 -8 -11 -18 -8 -10 2 -41 8 -70 11
l-52 7 -10 -38z"/>
<path d="M6180 5636 c0 -2 7 -7 16 -10 8 -3 12 -2 9 4 -6 10 -25 14 -25 6z"/>
<path d="M5956 5615 c-9 -26 -7 -32 5 -12 6 10 9 21 6 23 -2 3 -7 -2 -11 -11z"/>
<path d="M5810 5601 c-6 -12 -7 -21 -1 -21 10 0 24 30 17 37 -2 3 -9 -5 -16
-16z"/>
<path d="M4601 5564 c0 -11 3 -14 6 -6 3 7 2 16 -1 19 -3 4 -6 -2 -5 -13z"/>
<path d="M5766 5529 c-32 -51 -28 -62 6 -17 34 46 41 58 30 58 -4 0 -21 -19
-36 -41z"/>
<path d="M4578 5513 c7 -3 16 -2 19 1 4 3 -2 6 -13 5 -11 0 -14 -3 -6 -6z"/>
<path d="M5880 5395 c0 -7 9 -17 20 -20 11 -3 20 -11 20 -16 0 -5 -13 -3 -28
5 -28 14 -28 14 -62 -35 l-33 -49 26 -62 c14 -35 29 -75 33 -91 8 -36 19 -42
41 -20 29 30 27 60 -6 99 -17 19 -31 38 -31 42 1 4 18 -12 39 -35 l37 -42 18
30 c9 16 24 29 32 29 8 0 13 4 9 9 -3 5 3 12 14 16 29 9 19 38 -35 98 -45 51
-94 73 -94 42z"/>
<path d="M6071 5197 c-8 -10 -7 -14 2 -14 8 0 14 6 14 14 0 7 -1 13 -2 13 -2
0 -8 -6 -14 -13z"/>
<path d="M6021 5116 c-18 -21 7 -33 25 -12 8 9 9 11 2 6 -19 -15 -32 -12 -18
5 7 8 10 15 7 15 -2 0 -10 -6 -16 -14z"/>
<path d="M6049 5083 c-13 -16 -12 -17 4 -4 16 13 21 21 13 21 -2 0 -10 -8 -17
-17z"/>
<path d="M6301 5064 c0 -11 3 -14 6 -6 3 7 2 16 -1 19 -3 4 -6 -2 -5 -13z"/>
<path d="M6332 5033 c2 -9 8 -18 15 -20 7 -3 9 3 6 16 -6 25 -26 28 -21 4z"/>
<path d="M2246 7241 c-38 -25 -56 -59 -49 -93 4 -20 1 -29 -11 -34 -12 -5 -16
-19 -16 -58 0 -44 5 -58 30 -86 17 -19 30 -45 30 -60 0 -46 87 -110 150 -110
42 0 84 23 111 61 31 43 38 165 15 236 -42 127 -174 200 -260 144z m242 -328
c-3 -14 -23 -19 -23 -5 0 4 -4 12 -8 19 -5 7 0 9 13 6 12 -3 20 -12 18 -20z"/>
<path d="M6699 6633 l-24 -28 28 24 c15 14 27 26 27 28 0 8 -8 1 -31 -24z"/>
<path d="M6615 6571 c-3 -5 -2 -12 3 -15 5 -3 9 1 9 9 0 17 -3 19 -12 6z"/>
<path d="M6493 6458 c-13 -22 -13 -42 0 -29 10 10 19 41 12 41 -2 0 -7 -6 -12
-12z"/>
<path d="M2429 6633 c-37 -22 -58 -62 -52 -95 4 -20 1 -30 -11 -34 -12 -5 -16
-20 -16 -60 0 -46 4 -58 30 -84 19 -20 30 -41 30 -59 0 -21 10 -38 35 -60 20
-17 40 -31 46 -31 6 0 7 -4 4 -10 -3 -5 0 -7 8 -4 7 2 25 1 38 -4 31 -12 101
19 128 57 80 111 25 321 -101 387 -36 19 -107 17 -139 -3z m237 -339 c-4 -12
-10 -14 -17 -7 -5 5 -7 17 -3 27 4 12 10 14 17 7 5 -5 7 -17 3 -27z"/>
<path d="M2380 6276 c0 -2 8 -10 18 -17 15 -13 16 -12 3 4 -13 16 -21 21 -21
13z"/>
<path d="M5010 5380 c-9 -6 -10 -10 -3 -10 6 0 15 5 18 10 8 12 4 12 -15 0z"/>
<path d="M5358 4763 c7 -3 16 -2 19 1 4 3 -2 6 -13 5 -11 0 -14 -3 -6 -6z"/>
<path d="M3957 2989 c7 -7 15 -10 18 -7 3 3 -2 9 -12 12 -14 6 -15 5 -6 -5z"/>
<path d="M3771 7570 c0 -8 4 -24 9 -35 5 -13 9 -14 9 -5 0 8 -4 24 -9 35 -5
13 -9 14 -9 5z"/>
<path d="M3801 7464 c0 -11 3 -14 6 -6 3 7 2 16 -1 19 -3 4 -6 -2 -5 -13z"/>
<path d="M3821 7400 c0 -8 4 -24 9 -35 5 -13 9 -14 9 -5 0 8 -4 24 -9 35 -5
13 -9 14 -9 5z"/>
<path d="M3851 7300 c0 -8 4 -24 9 -35 5 -13 9 -14 9 -5 0 8 -4 24 -9 35 -5
13 -9 14 -9 5z"/>
<path d="M3881 7194 c0 -11 3 -14 6 -6 3 7 2 16 -1 19 -3 4 -6 -2 -5 -13z"/>
<path d="M3901 7130 c0 -8 4 -24 9 -35 5 -13 9 -14 9 -5 0 8 -4 24 -9 35 -5
13 -9 14 -9 5z"/>
<path d="M3931 7030 c0 -8 4 -24 9 -35 5 -13 9 -14 9 -5 0 8 -4 24 -9 35 -5
13 -9 14 -9 5z"/>
<path d="M3951 6960 c0 -8 4 -24 9 -35 5 -13 9 -14 9 -5 0 8 -4 24 -9 35 -5
13 -9 14 -9 5z"/>
<path d="M3981 6860 c0 -8 4 -24 9 -35 5 -13 9 -14 9 -5 0 8 -4 24 -9 35 -5
13 -9 14 -9 5z"/>
<path d="M4011 6754 c0 -11 3 -14 6 -6 3 7 2 16 -1 19 -3 4 -6 -2 -5 -13z"/>
<path d="M4031 6690 c0 -8 4 -24 9 -35 5 -13 9 -14 9 -5 0 8 -4 24 -9 35 -5
13 -9 14 -9 5z"/>
<path d="M4061 6590 c0 -8 4 -24 9 -35 5 -13 9 -14 9 -5 0 8 -4 24 -9 35 -5
13 -9 14 -9 5z"/>
<path d="M4091 6484 c0 -11 3 -14 6 -6 3 7 2 16 -1 19 -3 4 -6 -2 -5 -13z"/>
<path d="M4111 6420 c0 -8 4 -24 9 -35 5 -13 9 -14 9 -5 0 8 -4 24 -9 35 -5
13 -9 14 -9 5z"/>
<path d="M4141 6320 c0 -8 4 -24 9 -35 5 -13 9 -14 9 -5 0 8 -4 24 -9 35 -5
13 -9 14 -9 5z"/>
<path d="M4162 6250 c0 -8 6 -31 13 -50 7 -19 13 -28 13 -20 0 8 -6 31 -13 50
-7 19 -13 28 -13 20z"/>
<path d="M4191 6150 c0 -8 4 -24 9 -35 5 -13 9 -14 9 -5 0 8 -4 24 -9 35 -5
13 -9 14 -9 5z"/>
<path d="M4212 6080 c0 -8 6 -31 13 -50 7 -19 13 -28 13 -20 0 8 -6 31 -13 50
-7 19 -13 28 -13 20z"/>
<path d="M4241 5980 c0 -8 4 -24 9 -35 5 -13 9 -14 9 -5 0 8 -4 24 -9 35 -5
13 -9 14 -9 5z"/>
<path d="M4271 5880 c0 -8 4 -24 9 -35 5 -13 9 -14 9 -5 0 8 -4 24 -9 35 -5
13 -9 14 -9 5z"/>
<path d="M4292 5810 c0 -8 6 -31 13 -50 7 -19 13 -28 13 -20 0 8 -6 31 -13 50
-7 19 -13 28 -13 20z"/>
<path d="M4321 5710 c0 -8 4 -24 9 -35 5 -13 9 -14 9 -5 0 8 -4 24 -9 35 -5
13 -9 14 -9 5z"/>
<path d="M4351 5610 c0 -8 4 -24 9 -35 5 -13 9 -14 9 -5 0 8 -4 24 -9 35 -5
13 -9 14 -9 5z"/>
</g>
</svg>
